<svg width="1000" height="680" viewBox="0 0 1000 680" xmlns="http://www.w3.org/2000/svg" font-family="Arial, sans-serif">
<rect x="0" y="0" width="1000" height="680" fill="#F0F2F6"/>
<text x="500.0" y="26" text-anchor="middle" font-size="17" font-weight="bold" fill="#1A3566">B1 — Conceptual Layout</text>
<line x1="40" y1="38" x2="960" y2="38" stroke="#1A3566" stroke-width="1" opacity="0.3"/>
<rect x="54.0" y="84.0" width="278.7" height="257.0" fill="#E8EAED" stroke="#2D3748" stroke-width="6"/>
<rect x="60.0" y="90.0" width="266.7" height="245.0" fill="#FDFDFE" stroke="#2D3748" stroke-width="1"/>
<rect x="95.8" y="338.0" width="28.0" height="7" fill="#FDFDFE"/>
<path d="M95.8,341.0 A28.0,28.0 0 0 1 123.8,313.0" fill="none" stroke="#2D3748" stroke-width="1"/>
<line x1="95.8" y1="341.0" x2="95.8" y2="313.0" stroke="#2D3748" stroke-width="1.2"/>
<text x="68.0" y="106.0" font-size="12" font-weight="700" fill="#374151">Plant Room B1</text>
<circle cx="193.33333333333334" cy="243.34" r="13" fill="none" stroke="#5B6B8C" stroke-width="2"/><path d="M186.83333333333334,243.34 L199.83333333333334,243.34 M193.33333333333334,236.84 L193.33333333333334,249.84" stroke="#5B6B8C" stroke-width="2"/>
<rect x="360.7" y="84.0" width="278.7" height="257.0" fill="#E8EAED" stroke="#2D3748" stroke-width="6"/>
<rect x="366.7" y="90.0" width="266.7" height="245.0" fill="#FDFDFE" stroke="#2D3748" stroke-width="1"/>
<rect x="402.5" y="338.0" width="28.0" height="7" fill="#FDFDFE"/>
<path d="M402.5,341.0 A28.0,28.0 0 0 1 430.5,313.0" fill="none" stroke="#2D3748" stroke-width="1"/>
<line x1="402.5" y1="341.0" x2="402.5" y2="313.0" stroke="#2D3748" stroke-width="1.2"/>
<text x="374.7" y="106.0" font-size="12" font-weight="700" fill="#374151">Substation B1</text>
<path d="M504.0,230.34 L494.0,245.34 L500.0,245.34 L496.0,256.34000000000003 L506.0,241.34 L500.0,241.34 Z" fill="#5B6B8C"/>
<rect x="667.3" y="84.0" width="278.7" height="257.0" fill="#E8EAED" stroke="#2D3748" stroke-width="6"/>
<rect x="673.3" y="90.0" width="266.7" height="245.0" fill="#FDFDFE" stroke="#2D3748" stroke-width="1"/>
<rect x="709.1" y="338.0" width="28.0" height="7" fill="#FDFDFE"/>
<path d="M709.1,341.0 A28.0,28.0 0 0 1 737.1,313.0" fill="none" stroke="#2D3748" stroke-width="1"/>
<line x1="709.1" y1="341.0" x2="709.1" y2="313.0" stroke="#2D3748" stroke-width="1.2"/>
<text x="681.3" y="106.0" font-size="12" font-weight="700" fill="#374151">Basement B1 Ramp</text>
<circle cx="806.6666666666667" cy="243.34" r="4" fill="#5B6B8C"/>
<rect x="54.0" y="369.0" width="278.7" height="257.0" fill="#E8EAED" stroke="#2D3748" stroke-width="6"/>
<rect x="60.0" y="375.0" width="266.7" height="245.0" fill="#FDFDFE" stroke="#2D3748" stroke-width="1"/>
<rect x="95.8" y="623.0" width="28.0" height="7" fill="#FDFDFE"/>
<path d="M95.8,626.0 A28.0,28.0 0 0 1 123.8,598.0" fill="none" stroke="#2D3748" stroke-width="1"/>
<line x1="95.8" y1="626.0" x2="95.8" y2="598.0" stroke="#2D3748" stroke-width="1.2"/>
<text x="68.0" y="391.0" font-size="12" font-weight="700" fill="#374151">Basement B1 Payment Zone</text>
<circle cx="193.33333333333334" cy="528.34" r="4" fill="#5B6B8C"/>
</svg>