<svg width="1300" height="850" viewBox="0 0 1300 850" xmlns="http://www.w3.org/2000/svg" font-family="Arial, sans-serif">
<rect x="0" y="0" width="1300" height="850" fill="#FFFFFF"/>
<text x="650.0" y="30" text-anchor="middle" font-size="17" font-weight="bold" fill="#1A3566">GF — Conceptual Layout</text>
<rect x="60" y="55" width="1180" height="735" fill="none" stroke="#1A1A1A" stroke-width="5"/>
<rect x="63" y="386.5" width="1174" height="72" fill="#EEF1F5"/>
<text x="650.0" y="426.5" text-anchor="middle" font-size="10" fill="#8899AA">CORRIDOR</text>
<text x="68.0" y="73" font-size="11" font-weight="700" fill="#2D3748">Main Lobby Core A</text>
<rect x="138.33333333333331" y="198.75" width="44" height="60" fill="#F5F5F5" stroke="#4A5568" stroke-width="1.6"/><line x1="138.33333333333331" y1="198.75" x2="182.33333333333331" y2="258.75" stroke="#8899AA" stroke-width="1"/><line x1="182.33333333333331" y1="198.75" x2="138.33333333333331" y2="258.75" stroke="#8899AA" stroke-width="1"/>
<rect x="232.66666666666666" y="198.75" width="44" height="60" fill="#F5F5F5" stroke="#4A5568" stroke-width="1.6"/><line x1="232.66666666666666" y1="198.75" x2="276.66666666666663" y2="258.75" stroke="#8899AA" stroke-width="1"/><line x1="276.66666666666663" y1="198.75" x2="232.66666666666666" y2="258.75" stroke="#8899AA" stroke-width="1"/>
<rect x="196.5" y="383.5" width="22" height="6" fill="#FFFFFF"/>
<path d="M196.5,386.5 A22,22 0 0 1 218.5,364.5" fill="none" stroke="#1A1A1A" stroke-width="1"/>
<line x1="196.5" y1="386.5" x2="196.5" y2="364.5" stroke="#1A1A1A" stroke-width="1.2"/>
<line x1="355.0" y1="55" x2="355.0" y2="386.5" stroke="#1A1A1A" stroke-width="3"/>
<text x="363.0" y="73" font-size="11" font-weight="700" fill="#2D3748">Service Core B</text>
<rect x="480.5" y="198.75" width="44" height="60" fill="#F5F5F5" stroke="#4A5568" stroke-width="1.6"/><line x1="480.5" y1="198.75" x2="524.5" y2="258.75" stroke="#8899AA" stroke-width="1"/><line x1="524.5" y1="198.75" x2="480.5" y2="258.75" stroke="#8899AA" stroke-width="1"/>
<rect x="491.5" y="383.5" width="22" height="6" fill="#FFFFFF"/>
<path d="M491.5,386.5 A22,22 0 0 1 513.5,364.5" fill="none" stroke="#1A1A1A" stroke-width="1"/>
<line x1="491.5" y1="386.5" x2="491.5" y2="364.5" stroke="#1A1A1A" stroke-width="1.2"/>
<line x1="650.0" y1="55" x2="650.0" y2="386.5" stroke="#1A1A1A" stroke-width="3"/>
<text x="658.0" y="73" font-size="11" font-weight="700" fill="#2D3748">Level 1 Data Room</text>
<rect x="786.5" y="206.75" width="22" height="44" fill="none" stroke="#4A5568" stroke-width="1.5"/><line x1="786.5" y1="213.75" x2="808.5" y2="213.75" stroke="#8899AA" stroke-width="0.8"/><line x1="786.5" y1="220.75" x2="808.5" y2="220.75" stroke="#8899AA" stroke-width="0.8"/><line x1="786.5" y1="227.75" x2="808.5" y2="227.75" stroke="#8899AA" stroke-width="0.8"/><line x1="786.5" y1="234.75" x2="808.5" y2="234.75" stroke="#8899AA" stroke-width="0.8"/><line x1="786.5" y1="241.75" x2="808.5" y2="241.75" stroke="#8899AA" stroke-width="0.8"/>
<rect x="786.5" y="383.5" width="22" height="6" fill="#FFFFFF"/>
<path d="M786.5,386.5 A22,22 0 0 1 808.5,364.5" fill="none" stroke="#1A1A1A" stroke-width="1"/>
<line x1="786.5" y1="386.5" x2="786.5" y2="364.5" stroke="#1A1A1A" stroke-width="1.2"/>
<line x1="945.0" y1="55" x2="945.0" y2="386.5" stroke="#1A1A1A" stroke-width="3"/>
<text x="953.0" y="73" font-size="11" font-weight="700" fill="#2D3748">Level 1 BMS Room</text>
<rect x="1081.5" y="206.75" width="22" height="44" fill="none" stroke="#4A5568" stroke-width="1.5"/><line x1="1081.5" y1="213.75" x2="1103.5" y2="213.75" stroke="#8899AA" stroke-width="0.8"/><line x1="1081.5" y1="220.75" x2="1103.5" y2="220.75" stroke="#8899AA" stroke-width="0.8"/><line x1="1081.5" y1="227.75" x2="1103.5" y2="227.75" stroke="#8899AA" stroke-width="0.8"/><line x1="1081.5" y1="234.75" x2="1103.5" y2="234.75" stroke="#8899AA" stroke-width="0.8"/><line x1="1081.5" y1="241.75" x2="1103.5" y2="241.75" stroke="#8899AA" stroke-width="0.8"/>
<rect x="1081.5" y="383.5" width="22" height="6" fill="#FFFFFF"/>
<path d="M1081.5,386.5 A22,22 0 0 1 1103.5,364.5" fill="none" stroke="#1A1A1A" stroke-width="1"/>
<line x1="1081.5" y1="386.5" x2="1081.5" y2="364.5" stroke="#1A1A1A" stroke-width="1.2"/>
<text x="68.0" y="476.5" font-size="11" font-weight="700" fill="#2D3748">Level 1 Lobby</text>
<rect x="194.5" y="612.25" width="26" height="40" fill="none" stroke="#4A5568" stroke-width="1.6"/><line x1="198.5" y1="618.25" x2="216.5" y2="618.25" stroke="#8899AA" stroke-width="1"/><line x1="198.5" y1="626.25" x2="216.5" y2="626.25" stroke="#8899AA" stroke-width="1"/><line x1="198.5" y1="634.25" x2="216.5" y2="634.25" stroke="#8899AA" stroke-width="1"/><line x1="198.5" y1="642.25" x2="216.5" y2="642.25" stroke="#8899AA" stroke-width="1"/>
<rect x="196.5" y="455.5" width="22" height="6" fill="#FFFFFF"/>
<path d="M196.5,458.5 A22,22 0 0 0 218.5,480.5" fill="none" stroke="#1A1A1A" stroke-width="1"/>
<line x1="196.5" y1="458.5" x2="196.5" y2="480.5" stroke="#1A1A1A" stroke-width="1.2"/>
<line x1="355.0" y1="458.5" x2="355.0" y2="790.0" stroke="#1A1A1A" stroke-width="3"/>
<text x="363.0" y="476.5" font-size="11" font-weight="700" fill="#2D3748">Level 1 Main Entrance</text>
<rect x="489.5" y="612.25" width="26" height="40" fill="none" stroke="#4A5568" stroke-width="1.6"/><line x1="493.5" y1="618.25" x2="511.5" y2="618.25" stroke="#8899AA" stroke-width="1"/><line x1="493.5" y1="626.25" x2="511.5" y2="626.25" stroke="#8899AA" stroke-width="1"/><line x1="493.5" y1="634.25" x2="511.5" y2="634.25" stroke="#8899AA" stroke-width="1"/><line x1="493.5" y1="642.25" x2="511.5" y2="642.25" stroke="#8899AA" stroke-width="1"/>
<rect x="491.5" y="455.5" width="22" height="6" fill="#FFFFFF"/>
<path d="M491.5,458.5 A22,22 0 0 0 513.5,480.5" fill="none" stroke="#1A1A1A" stroke-width="1"/>
<line x1="491.5" y1="458.5" x2="491.5" y2="480.5" stroke="#1A1A1A" stroke-width="1.2"/>
<line x1="650.0" y1="458.5" x2="650.0" y2="790.0" stroke="#1A1A1A" stroke-width="3"/>
<text x="658.0" y="476.5" font-size="11" font-weight="700" fill="#2D3748">Level 1 Fire Control Room</text>
<rect x="784.5" y="612.25" width="26" height="40" fill="none" stroke="#4A5568" stroke-width="1.6"/><line x1="788.5" y1="618.25" x2="806.5" y2="618.25" stroke="#8899AA" stroke-width="1"/><line x1="788.5" y1="626.25" x2="806.5" y2="626.25" stroke="#8899AA" stroke-width="1"/><line x1="788.5" y1="634.25" x2="806.5" y2="634.25" stroke="#8899AA" stroke-width="1"/><line x1="788.5" y1="642.25" x2="806.5" y2="642.25" stroke="#8899AA" stroke-width="1"/>
<rect x="786.5" y="455.5" width="22" height="6" fill="#FFFFFF"/>
<path d="M786.5,458.5 A22,22 0 0 0 808.5,480.5" fill="none" stroke="#1A1A1A" stroke-width="1"/>
<line x1="786.5" y1="458.5" x2="786.5" y2="480.5" stroke="#1A1A1A" stroke-width="1.2"/>
<line x1="945.0" y1="458.5" x2="945.0" y2="790.0" stroke="#1A1A1A" stroke-width="3"/>
<text x="953.0" y="476.5" font-size="11" font-weight="700" fill="#2D3748">External Generator Yard</text>
<rect x="1047.5" y="607.25" width="90" height="50" rx="4" fill="none" stroke="#4A5568" stroke-width="1.8"/><circle cx="1070.0" cy="632.25" r="14.000000000000002" fill="none" stroke="#4A5568" stroke-width="1.4"/><line x1="1092.5" y1="632.25" x2="1131.5" y2="632.25" stroke="#4A5568" stroke-width="1.4"/>
<rect x="1081.5" y="455.5" width="22" height="6" fill="#FFFFFF"/>
<path d="M1081.5,458.5 A22,22 0 0 0 1103.5,480.5" fill="none" stroke="#1A1A1A" stroke-width="1"/>
<line x1="1081.5" y1="458.5" x2="1081.5" y2="480.5" stroke="#1A1A1A" stroke-width="1.2"/>
</svg>