<svg width="1100" height="700" viewBox="0 0 1100 700" xmlns="http://www.w3.org/2000/svg" font-family="Arial, sans-serif">
<rect x="0" y="0" width="1100" height="700" fill="#F0F2F6"/>
<text x="550.0" y="26" text-anchor="middle" font-size="17" font-weight="bold" fill="#1A3566">GF — Conceptual Layout</text>
<rect x="50" y="80" width="1000" height="570" fill="#FDFDFE" stroke="#2D3748" stroke-width="8"/>
<rect x="54.0" y="330.0" width="992" height="70" fill="#EEF1F5"/>
<text x="550.0" y="369.0" text-anchor="middle" font-size="10" fill="#5B6B8C" opacity="0.7">CORRIDOR</text>
<text x="58.0" y="98" font-size="10.5" font-weight="700" fill="#374151">Main Lobby Core A</text>
<rect x="169.5" y="207.6" width="11.0" height="19.8" fill="none" stroke="#5B6B8C" stroke-width="2"/><path d="M175.0,211.45 L171.0,216.4 L179.0,216.4 Z" fill="#5B6B8C"/><path d="M175.0,223.55 L171.0,218.6 L179.0,218.6 Z" fill="#5B6B8C"/>
<rect x="164.0" y="327.0" width="22.0" height="8" fill="#FDFDFE"/><path d="M164.0,330.0 A22.0,22.0 0 0 1 186.0,308.0" fill="none" stroke="#2D3748" stroke-width="1"/><line x1="164.0" y1="330.0" x2="164.0" y2="308.0" stroke="#2D3748" stroke-width="1.2"/>
<line x1="300.0" y1="80" x2="300.0" y2="330.0" stroke="#2D3748" stroke-width="3"/>
<text x="308.0" y="98" font-size="10.5" font-weight="700" fill="#374151">Service Core B</text>
<rect x="419.5" y="207.6" width="11.0" height="19.8" fill="none" stroke="#5B6B8C" stroke-width="2"/><path d="M425.0,211.45 L421.0,216.4 L429.0,216.4 Z" fill="#5B6B8C"/><path d="M425.0,223.55 L421.0,218.6 L429.0,218.6 Z" fill="#5B6B8C"/>
<rect x="414.0" y="327.0" width="22.0" height="8" fill="#FDFDFE"/><path d="M414.0,330.0 A22.0,22.0 0 0 1 436.0,308.0" fill="none" stroke="#2D3748" stroke-width="1"/><line x1="414.0" y1="330.0" x2="414.0" y2="308.0" stroke="#2D3748" stroke-width="1.2"/>
<line x1="550.0" y1="80" x2="550.0" y2="330.0" stroke="#2D3748" stroke-width="3"/>
<text x="558.0" y="98" font-size="10.5" font-weight="700" fill="#374151">Level 1 Data Room</text>
<rect x="665.1" y="211.45" width="17.6" height="12.100000000000001" rx="1.5" fill="none" stroke="#5B6B8C" stroke-width="2"/><rect x="682.7" y="214.75" width="3" height="5.5" fill="#5B6B8C"/>
<rect x="664.0" y="327.0" width="22.0" height="8" fill="#FDFDFE"/><path d="M664.0,330.0 A22.0,22.0 0 0 1 686.0,308.0" fill="none" stroke="#2D3748" stroke-width="1"/><line x1="664.0" y1="330.0" x2="664.0" y2="308.0" stroke="#2D3748" stroke-width="1.2"/>
<line x1="800.0" y1="80" x2="800.0" y2="330.0" stroke="#2D3748" stroke-width="3"/>
<text x="808.0" y="98" font-size="10.5" font-weight="700" fill="#374151">Level 1 BMS Room</text>
<circle cx="925.0" cy="217.5" r="11" fill="none" stroke="#5B6B8C" stroke-width="2"/><path d="M925.0,217.5 L931.05,212.55" stroke="#5B6B8C" stroke-width="2"/>
<rect x="914.0" y="327.0" width="22.0" height="8" fill="#FDFDFE"/><path d="M914.0,330.0 A22.0,22.0 0 0 1 936.0,308.0" fill="none" stroke="#2D3748" stroke-width="1"/><line x1="914.0" y1="330.0" x2="914.0" y2="308.0" stroke="#2D3748" stroke-width="1.2"/>
<text x="58.0" y="418.0" font-size="10.5" font-weight="700" fill="#374151">Level 1 Lobby</text>
<rect x="167.3" y="532.55" width="14.3" height="9.9" rx="2" fill="none" stroke="#5B6B8C" stroke-width="2"/><circle cx="181.6" cy="537.5" r="3.3" fill="none" stroke="#5B6B8C" stroke-width="2"/>
<rect x="164.0" y="397.0" width="22.0" height="8" fill="#FDFDFE"/>
<line x1="300.0" y1="400.0" x2="300.0" y2="650.0" stroke="#2D3748" stroke-width="3"/>
<text x="308.0" y="418.0" font-size="10.5" font-weight="700" fill="#374151">Level 1 Main Entrance</text>
<rect x="418.95" y="536.4" width="12.100000000000001" height="8.8" rx="1.5" fill="none" stroke="#5B6B8C" stroke-width="2"/><path d="M421.7,536.4 L421.7,532.55 A3.3,3.3 0 0 1 428.3,532.55 L428.3,536.4" fill="none" stroke="#5B6B8C" stroke-width="2"/>
<rect x="414.0" y="397.0" width="22.0" height="8" fill="#FDFDFE"/>
<line x1="550.0" y1="400.0" x2="550.0" y2="650.0" stroke="#2D3748" stroke-width="3"/>
<text x="558.0" y="418.0" font-size="10.5" font-weight="700" fill="#374151">Level 1 Fire Control Room</text>
<circle cx="675.0" cy="537.5" r="11" fill="none" stroke="#5B6B8C" stroke-width="2"/><path d="M675.0,537.5 L681.05,532.55" stroke="#5B6B8C" stroke-width="2"/>
<rect x="664.0" y="397.0" width="22.0" height="8" fill="#FDFDFE"/>
<line x1="800.0" y1="400.0" x2="800.0" y2="650.0" stroke="#2D3748" stroke-width="3"/>
<text x="808.0" y="418.0" font-size="10.5" font-weight="700" fill="#374151">External Generator Yard</text>
<path d="M928.0,526.5 L920.0,539.5 L925.0,539.5 L922.0,548.5 L930.0,535.5 L925.0,535.5 Z" fill="#5B6B8C"/>
<rect x="914.0" y="397.0" width="22.0" height="8" fill="#FDFDFE"/>
</svg>