<svg width="1300" height="850" viewBox="0 0 1300 850" xmlns="http://www.w3.org/2000/svg" font-family="Arial, sans-serif">
<rect x="0" y="0" width="1300" height="850" fill="#FFFFFF"/>
<text x="650.0" y="30" text-anchor="middle" font-size="17" font-weight="bold" fill="#1A3566">F10 — Conceptual Layout</text>
<rect x="60" y="55" width="1180" height="735" fill="none" stroke="#1A1A1A" stroke-width="5"/>
<rect x="63" y="394.5" width="1174" height="56" fill="#EEF1F5"/>
<text x="650.0" y="426.5" text-anchor="middle" font-size="10" fill="#8899AA">CORRIDOR</text>
<text x="68.0" y="73" font-size="11" font-weight="700" fill="#2D3748">Office</text>
<rect x="335.0" y="220.75" width="40" height="24.0" fill="none" stroke="#4A5568" stroke-width="1.6"/><line x1="343.0" y1="220.75" x2="343.0" y2="244.75" stroke="#8899AA" stroke-width="1"/><line x1="351.0" y1="220.75" x2="351.0" y2="244.75" stroke="#8899AA" stroke-width="1"/><line x1="359.0" y1="220.75" x2="359.0" y2="244.75" stroke="#8899AA" stroke-width="1"/><line x1="367.0" y1="220.75" x2="367.0" y2="244.75" stroke="#8899AA" stroke-width="1"/>
<rect x="344.0" y="391.5" width="22" height="6" fill="#FFFFFF"/>
<path d="M344.0,394.5 A22,22 0 0 1 366.0,372.5" fill="none" stroke="#1A1A1A" stroke-width="1"/>
<line x1="344.0" y1="394.5" x2="344.0" y2="372.5" stroke="#1A1A1A" stroke-width="1.2"/>
<line x1="650.0" y1="55" x2="650.0" y2="394.5" stroke="#1A1A1A" stroke-width="3"/>
<text x="658.0" y="73" font-size="11" font-weight="700" fill="#2D3748">L11 Common Area</text>
<rect x="932.0" y="212.75" width="26" height="40" fill="none" stroke="#4A5568" stroke-width="1.6"/><line x1="936.0" y1="218.75" x2="954.0" y2="218.75" stroke="#8899AA" stroke-width="1"/><line x1="936.0" y1="226.75" x2="954.0" y2="226.75" stroke="#8899AA" stroke-width="1"/><line x1="936.0" y1="234.75" x2="954.0" y2="234.75" stroke="#8899AA" stroke-width="1"/><line x1="936.0" y1="242.75" x2="954.0" y2="242.75" stroke="#8899AA" stroke-width="1"/>
<rect x="934.0" y="391.5" width="22" height="6" fill="#FFFFFF"/>
<path d="M934.0,394.5 A22,22 0 0 1 956.0,372.5" fill="none" stroke="#1A1A1A" stroke-width="1"/>
<line x1="934.0" y1="394.5" x2="934.0" y2="372.5" stroke="#1A1A1A" stroke-width="1.2"/>
<text x="68.0" y="468.5" font-size="11" font-weight="700" fill="#2D3748">L11 Ceiling Void</text>
<rect x="342.0" y="608.25" width="26" height="40" fill="none" stroke="#4A5568" stroke-width="1.6"/><line x1="346.0" y1="614.25" x2="364.0" y2="614.25" stroke="#8899AA" stroke-width="1"/><line x1="346.0" y1="622.25" x2="364.0" y2="622.25" stroke="#8899AA" stroke-width="1"/><line x1="346.0" y1="630.25" x2="364.0" y2="630.25" stroke="#8899AA" stroke-width="1"/><line x1="346.0" y1="638.25" x2="364.0" y2="638.25" stroke="#8899AA" stroke-width="1"/>
<rect x="344.0" y="447.5" width="22" height="6" fill="#FFFFFF"/>
<path d="M344.0,450.5 A22,22 0 0 0 366.0,472.5" fill="none" stroke="#1A1A1A" stroke-width="1"/>
<line x1="344.0" y1="450.5" x2="344.0" y2="472.5" stroke="#1A1A1A" stroke-width="1.2"/>
<line x1="650.0" y1="450.5" x2="650.0" y2="790.0" stroke="#1A1A1A" stroke-width="3"/>
<text x="658.0" y="468.5" font-size="11" font-weight="700" fill="#2D3748">L11 Office Entry</text>
<rect x="932.0" y="608.25" width="26" height="40" fill="none" stroke="#4A5568" stroke-width="1.6"/><line x1="936.0" y1="614.25" x2="954.0" y2="614.25" stroke="#8899AA" stroke-width="1"/><line x1="936.0" y1="622.25" x2="954.0" y2="622.25" stroke="#8899AA" stroke-width="1"/><line x1="936.0" y1="630.25" x2="954.0" y2="630.25" stroke="#8899AA" stroke-width="1"/><line x1="936.0" y1="638.25" x2="954.0" y2="638.25" stroke="#8899AA" stroke-width="1"/>
<rect x="934.0" y="447.5" width="22" height="6" fill="#FFFFFF"/>
<path d="M934.0,450.5 A22,22 0 0 0 956.0,472.5" fill="none" stroke="#1A1A1A" stroke-width="1"/>
<line x1="934.0" y1="450.5" x2="934.0" y2="472.5" stroke="#1A1A1A" stroke-width="1.2"/>
</svg>