<svg width="1300" height="850" viewBox="0 0 1300 850" xmlns="http://www.w3.org/2000/svg" font-family="Arial, sans-serif">
<rect x="0" y="0" width="1300" height="850" fill="#FFFFFF"/>
<text x="650.0" y="30" text-anchor="middle" font-size="17" font-weight="bold" fill="#1A3566">F11 — Conceptual Layout</text>
<rect x="60" y="55" width="1180" height="735" fill="none" stroke="#1A1A1A" stroke-width="5"/>
<rect x="63" y="396.5" width="1174" height="52" fill="#EEF1F5"/>
<text x="650.0" y="426.5" text-anchor="middle" font-size="10" fill="#8899AA">CORRIDOR</text>
<text x="68.0" y="73" font-size="11" font-weight="700" fill="#2D3748">Office</text>
<rect x="335.0" y="221.75" width="40" height="24.0" fill="none" stroke="#4A5568" stroke-width="1.6"/><line x1="343.0" y1="221.75" x2="343.0" y2="245.75" stroke="#8899AA" stroke-width="1"/><line x1="351.0" y1="221.75" x2="351.0" y2="245.75" stroke="#8899AA" stroke-width="1"/><line x1="359.0" y1="221.75" x2="359.0" y2="245.75" stroke="#8899AA" stroke-width="1"/><line x1="367.0" y1="221.75" x2="367.0" y2="245.75" stroke="#8899AA" stroke-width="1"/>
<rect x="344.0" y="393.5" width="22" height="6" fill="#FFFFFF"/>
<path d="M344.0,396.5 A22,22 0 0 1 366.0,374.5" fill="none" stroke="#1A1A1A" stroke-width="1"/>
<line x1="344.0" y1="396.5" x2="344.0" y2="374.5" stroke="#1A1A1A" stroke-width="1.2"/>
<line x1="650.0" y1="55" x2="650.0" y2="396.5" stroke="#1A1A1A" stroke-width="3"/>
<text x="658.0" y="73" font-size="11" font-weight="700" fill="#2D3748">L12 Common Area</text>
<rect x="932.0" y="213.75" width="26" height="40" fill="none" stroke="#4A5568" stroke-width="1.6"/><line x1="936.0" y1="219.75" x2="954.0" y2="219.75" stroke="#8899AA" stroke-width="1"/><line x1="936.0" y1="227.75" x2="954.0" y2="227.75" stroke="#8899AA" stroke-width="1"/><line x1="936.0" y1="235.75" x2="954.0" y2="235.75" stroke="#8899AA" stroke-width="1"/><line x1="936.0" y1="243.75" x2="954.0" y2="243.75" stroke="#8899AA" stroke-width="1"/>
<rect x="934.0" y="393.5" width="22" height="6" fill="#FFFFFF"/>
<path d="M934.0,396.5 A22,22 0 0 1 956.0,374.5" fill="none" stroke="#1A1A1A" stroke-width="1"/>
<line x1="934.0" y1="396.5" x2="934.0" y2="374.5" stroke="#1A1A1A" stroke-width="1.2"/>
<text x="68.0" y="466.5" font-size="11" font-weight="700" fill="#2D3748">L12 Ceiling Void</text>
<rect x="342.0" y="607.25" width="26" height="40" fill="none" stroke="#4A5568" stroke-width="1.6"/><line x1="346.0" y1="613.25" x2="364.0" y2="613.25" stroke="#8899AA" stroke-width="1"/><line x1="346.0" y1="621.25" x2="364.0" y2="621.25" stroke="#8899AA" stroke-width="1"/><line x1="346.0" y1="629.25" x2="364.0" y2="629.25" stroke="#8899AA" stroke-width="1"/><line x1="346.0" y1="637.25" x2="364.0" y2="637.25" stroke="#8899AA" stroke-width="1"/>
<rect x="344.0" y="445.5" width="22" height="6" fill="#FFFFFF"/>
<path d="M344.0,448.5 A22,22 0 0 0 366.0,470.5" fill="none" stroke="#1A1A1A" stroke-width="1"/>
<line x1="344.0" y1="448.5" x2="344.0" y2="470.5" stroke="#1A1A1A" stroke-width="1.2"/>
<line x1="650.0" y1="448.5" x2="650.0" y2="790.0" stroke="#1A1A1A" stroke-width="3"/>
<text x="658.0" y="466.5" font-size="11" font-weight="700" fill="#2D3748">L12 Office Entry</text>
<rect x="932.0" y="607.25" width="26" height="40" fill="none" stroke="#4A5568" stroke-width="1.6"/><line x1="936.0" y1="613.25" x2="954.0" y2="613.25" stroke="#8899AA" stroke-width="1"/><line x1="936.0" y1="621.25" x2="954.0" y2="621.25" stroke="#8899AA" stroke-width="1"/><line x1="936.0" y1="629.25" x2="954.0" y2="629.25" stroke="#8899AA" stroke-width="1"/><line x1="936.0" y1="637.25" x2="954.0" y2="637.25" stroke="#8899AA" stroke-width="1"/>
<rect x="934.0" y="445.5" width="22" height="6" fill="#FFFFFF"/>
<path d="M934.0,448.5 A22,22 0 0 0 956.0,470.5" fill="none" stroke="#1A1A1A" stroke-width="1"/>
<line x1="934.0" y1="448.5" x2="934.0" y2="470.5" stroke="#1A1A1A" stroke-width="1.2"/>
</svg>