<svg width="1000" height="680" viewBox="0 0 1000 680" xmlns="http://www.w3.org/2000/svg" font-family="Arial, sans-serif">
<rect x="0" y="0" width="1000" height="680" fill="#F0F2F6"/>
<text x="500.0" y="26" text-anchor="middle" font-size="17" font-weight="bold" fill="#1A3566">F12 — Conceptual Layout</text>
<line x1="40" y1="38" x2="960" y2="38" stroke="#1A3566" stroke-width="1" opacity="0.3"/>
<rect x="54.0" y="84.0" width="278.7" height="257.0" fill="#E8EAED" stroke="#2D3748" stroke-width="6"/>
<rect x="60.0" y="90.0" width="266.7" height="245.0" fill="#FDFDFE" stroke="#2D3748" stroke-width="1"/>
<rect x="95.8" y="338.0" width="28.0" height="7" fill="#FDFDFE"/>
<path d="M95.8,341.0 A28.0,28.0 0 0 1 123.8,313.0" fill="none" stroke="#2D3748" stroke-width="1"/>
<line x1="95.8" y1="341.0" x2="95.8" y2="313.0" stroke="#2D3748" stroke-width="1.2"/>
<text x="68.0" y="106.0" font-size="12" font-weight="700" fill="#374151">Office</text>
<circle cx="193.33333333333334" cy="243.34" r="13" fill="none" stroke="#5B6B8C" stroke-width="2"/><path d="M193.33333333333334,230.34 A13,13 0 0 1 202.43333333333334,234.24" stroke="#5B6B8C" stroke-width="2" fill="none"/><path d="M206.33333333333334,243.34 A13,13 0 0 1 202.43333333333334,252.44" stroke="#5B6B8C" stroke-width="2" fill="none"/><path d="M193.33333333333334,256.34000000000003 A13,13 0 0 1 184.23333333333335,252.44" stroke="#5B6B8C" stroke-width="2" fill="none"/><path d="M180.33333333333334,243.34 A13,13 0 0 1 184.23333333333335,234.24" stroke="#5B6B8C" stroke-width="2" fill="none"/>
<rect x="360.7" y="84.0" width="278.7" height="257.0" fill="#E8EAED" stroke="#2D3748" stroke-width="6"/>
<rect x="366.7" y="90.0" width="266.7" height="245.0" fill="#FDFDFE" stroke="#2D3748" stroke-width="1"/>
<rect x="402.5" y="338.0" width="28.0" height="7" fill="#FDFDFE"/>
<path d="M402.5,341.0 A28.0,28.0 0 0 1 430.5,313.0" fill="none" stroke="#2D3748" stroke-width="1"/>
<line x1="402.5" y1="341.0" x2="402.5" y2="313.0" stroke="#2D3748" stroke-width="1.2"/>
<text x="374.7" y="106.0" font-size="12" font-weight="700" fill="#374151">L13 Common Area</text>
<rect x="489.6" y="236.84" width="18.2" height="13" rx="2" fill="none" stroke="#5B6B8C" stroke-width="2"/><circle cx="509.1" cy="243.34" r="4.55" fill="none" stroke="#5B6B8C" stroke-width="2"/>
<rect x="667.3" y="84.0" width="278.7" height="257.0" fill="#E8EAED" stroke="#2D3748" stroke-width="6"/>
<rect x="673.3" y="90.0" width="266.7" height="245.0" fill="#FDFDFE" stroke="#2D3748" stroke-width="1"/>
<rect x="709.1" y="338.0" width="28.0" height="7" fill="#FDFDFE"/>
<path d="M709.1,341.0 A28.0,28.0 0 0 1 737.1,313.0" fill="none" stroke="#2D3748" stroke-width="1"/>
<line x1="709.1" y1="341.0" x2="709.1" y2="313.0" stroke="#2D3748" stroke-width="1.2"/>
<text x="681.3" y="106.0" font-size="12" font-weight="700" fill="#374151">L13 Ceiling Void</text>
<circle cx="806.6666666666667" cy="243.34" r="13" fill="none" stroke="#5B6B8C" stroke-width="2"/><path d="M806.6666666666667,243.34 L814.4666666666667,236.84" stroke="#5B6B8C" stroke-width="2"/>
<rect x="54.0" y="369.0" width="278.7" height="257.0" fill="#E8EAED" stroke="#2D3748" stroke-width="6"/>
<rect x="60.0" y="375.0" width="266.7" height="245.0" fill="#FDFDFE" stroke="#2D3748" stroke-width="1"/>
<rect x="95.8" y="623.0" width="28.0" height="7" fill="#FDFDFE"/>
<path d="M95.8,626.0 A28.0,28.0 0 0 1 123.8,598.0" fill="none" stroke="#2D3748" stroke-width="1"/>
<line x1="95.8" y1="626.0" x2="95.8" y2="598.0" stroke="#2D3748" stroke-width="1.2"/>
<text x="68.0" y="391.0" font-size="12" font-weight="700" fill="#374151">L13 Office Entry</text>
<rect x="185.53333333333333" y="527.0400000000001" width="15.6" height="11.700000000000001" rx="1.5" fill="none" stroke="#5B6B8C" stroke-width="2"/><path d="M188.78333333333333,527.0400000000001 L188.78333333333333,521.84 A4.55,4.55 0 0 1 197.88333333333335,521.84 L197.88333333333335,527.0400000000001" fill="none" stroke="#5B6B8C" stroke-width="2"/>
</svg>