<svg width="1300" height="850" viewBox="0 0 1300 850" xmlns="http://www.w3.org/2000/svg" font-family="Arial, sans-serif">
<rect x="0" y="0" width="1300" height="850" fill="#FFFFFF"/>
<text x="650.0" y="30" text-anchor="middle" font-size="17" font-weight="bold" fill="#1A3566">F14 — Conceptual Layout</text>
<rect x="60" y="55" width="1180" height="735" fill="none" stroke="#1A1A1A" stroke-width="5"/>
<rect x="63" y="727" width="1174" height="60" fill="#EEF1F5"/>
<text x="650.0" y="762.5" text-anchor="middle" font-size="10" fill="#8899AA">CORRIDOR</text>
<text x="70.0" y="77" font-size="12" font-weight="700" fill="#2D3748">Level 15 Mechanical Room (serves L1)</text>
<rect x="236.66666666666663" y="391.0" width="40" height="24.0" fill="none" stroke="#4A5568" stroke-width="1.6"/><line x1="244.66666666666663" y1="391.0" x2="244.66666666666663" y2="415.0" stroke="#8899AA" stroke-width="1"/><line x1="252.66666666666663" y1="391.0" x2="252.66666666666663" y2="415.0" stroke="#8899AA" stroke-width="1"/><line x1="260.66666666666663" y1="391.0" x2="260.66666666666663" y2="415.0" stroke="#8899AA" stroke-width="1"/><line x1="268.66666666666663" y1="391.0" x2="268.66666666666663" y2="415.0" stroke="#8899AA" stroke-width="1"/>
<rect x="243.66666666666663" y="724" width="26" height="6" fill="#FFFFFF"/>
<path d="M243.66666666666663,727 A26,26 0 0 1 269.66666666666663,701" fill="none" stroke="#1A1A1A" stroke-width="1"/>
<line x1="243.66666666666663" y1="727" x2="243.66666666666663" y2="701" stroke="#1A1A1A" stroke-width="1.2"/>
<line x1="453.3333333333333" y1="55" x2="453.3333333333333" y2="727" stroke="#1A1A1A" stroke-width="3"/>
<text x="463.3333333333333" y="77" font-size="12" font-weight="700" fill="#2D3748">Level 15 Mechanical Room</text>
<rect x="630.0" y="391.0" width="40" height="24.0" fill="none" stroke="#4A5568" stroke-width="1.6"/><line x1="638.0" y1="391.0" x2="638.0" y2="415.0" stroke="#8899AA" stroke-width="1"/><line x1="646.0" y1="391.0" x2="646.0" y2="415.0" stroke="#8899AA" stroke-width="1"/><line x1="654.0" y1="391.0" x2="654.0" y2="415.0" stroke="#8899AA" stroke-width="1"/><line x1="662.0" y1="391.0" x2="662.0" y2="415.0" stroke="#8899AA" stroke-width="1"/>
<rect x="637.0" y="724" width="26" height="6" fill="#FFFFFF"/>
<path d="M637.0,727 A26,26 0 0 1 663.0,701" fill="none" stroke="#1A1A1A" stroke-width="1"/>
<line x1="637.0" y1="727" x2="637.0" y2="701" stroke="#1A1A1A" stroke-width="1.2"/>
<line x1="846.6666666666666" y1="55" x2="846.6666666666666" y2="727" stroke="#1A1A1A" stroke-width="3"/>
<text x="856.6666666666666" y="77" font-size="12" font-weight="700" fill="#2D3748">Rooftop Level 15</text>
<rect x="929.0" y="391.0" width="40" height="24.0" fill="none" stroke="#4A5568" stroke-width="1.6"/><line x1="937.0" y1="391.0" x2="937.0" y2="415.0" stroke="#8899AA" stroke-width="1"/><line x1="945.0" y1="391.0" x2="945.0" y2="415.0" stroke="#8899AA" stroke-width="1"/><line x1="953.0" y1="391.0" x2="953.0" y2="415.0" stroke="#8899AA" stroke-width="1"/><line x1="961.0" y1="391.0" x2="961.0" y2="415.0" stroke="#8899AA" stroke-width="1"/>
<rect x="1023.3333333333333" y="391.0" width="40" height="24.0" fill="none" stroke="#4A5568" stroke-width="1.6"/><line x1="1031.3333333333333" y1="391.0" x2="1031.3333333333333" y2="415.0" stroke="#8899AA" stroke-width="1"/><line x1="1039.3333333333333" y1="391.0" x2="1039.3333333333333" y2="415.0" stroke="#8899AA" stroke-width="1"/><line x1="1047.3333333333333" y1="391.0" x2="1047.3333333333333" y2="415.0" stroke="#8899AA" stroke-width="1"/><line x1="1055.3333333333333" y1="391.0" x2="1055.3333333333333" y2="415.0" stroke="#8899AA" stroke-width="1"/>
<rect x="1117.6666666666665" y="391.0" width="40" height="24.0" fill="none" stroke="#4A5568" stroke-width="1.6"/><line x1="1125.6666666666665" y1="391.0" x2="1125.6666666666665" y2="415.0" stroke="#8899AA" stroke-width="1"/><line x1="1133.6666666666665" y1="391.0" x2="1133.6666666666665" y2="415.0" stroke="#8899AA" stroke-width="1"/><line x1="1141.6666666666665" y1="391.0" x2="1141.6666666666665" y2="415.0" stroke="#8899AA" stroke-width="1"/><line x1="1149.6666666666665" y1="391.0" x2="1149.6666666666665" y2="415.0" stroke="#8899AA" stroke-width="1"/>
<rect x="1030.3333333333333" y="724" width="26" height="6" fill="#FFFFFF"/>
<path d="M1030.3333333333333,727 A26,26 0 0 1 1056.3333333333333,701" fill="none" stroke="#1A1A1A" stroke-width="1"/>
<line x1="1030.3333333333333" y1="727" x2="1030.3333333333333" y2="701" stroke="#1A1A1A" stroke-width="1.2"/>
</svg>