<svg width="1100" height="700" viewBox="0 0 1100 700" xmlns="http://www.w3.org/2000/svg" font-family="Arial, sans-serif">
<rect x="0" y="0" width="1100" height="700" fill="#F0F2F6"/>
<text x="550.0" y="26" text-anchor="middle" font-size="17" font-weight="bold" fill="#1A3566">F14 — Conceptual Layout</text>
<rect x="50" y="80" width="1000" height="570" fill="#FDFDFE" stroke="#2D3748" stroke-width="8"/>
<rect x="54.0" y="580" width="992" height="66.0" fill="#EEF1F5"/>
<text x="550.0" y="619.0" text-anchor="middle" font-size="10" fill="#5B6B8C" opacity="0.7">CORRIDOR</text>
<text x="60.0" y="100" font-size="11.5" font-weight="700" fill="#374151">Level 15 Mechanical Room (serves L1)</text>
<circle cx="216.66666666666666" cy="355.0" r="11" fill="none" stroke="#5B6B8C" stroke-width="2"/><path d="M216.66666666666666,344.0 A11,11 0 0 1 224.36666666666665,347.3" stroke="#5B6B8C" stroke-width="2" fill="none"/><path d="M227.66666666666666,355.0 A11,11 0 0 1 224.36666666666665,362.7" stroke="#5B6B8C" stroke-width="2" fill="none"/><path d="M216.66666666666666,366.0 A11,11 0 0 1 208.96666666666667,362.7" stroke="#5B6B8C" stroke-width="2" fill="none"/><path d="M205.66666666666666,355.0 A11,11 0 0 1 208.96666666666667,347.3" stroke="#5B6B8C" stroke-width="2" fill="none"/>
<rect x="203.7" y="577.0" width="26.0" height="8" fill="#FDFDFE"/><path d="M203.7,580.0 A26.0,26.0 0 0 1 229.7,554.0" fill="none" stroke="#2D3748" stroke-width="1"/><line x1="203.7" y1="580.0" x2="203.7" y2="554.0" stroke="#2D3748" stroke-width="1.2"/>
<line x1="383.3333333333333" y1="80" x2="383.3333333333333" y2="580" stroke="#2D3748" stroke-width="3"/>
<text x="393.3333333333333" y="100" font-size="11.5" font-weight="700" fill="#374151">Level 15 Mechanical Room</text>
<circle cx="550.0" cy="355.0" r="11" fill="none" stroke="#5B6B8C" stroke-width="2"/><path d="M550.0,344.0 A11,11 0 0 1 557.7,347.3" stroke="#5B6B8C" stroke-width="2" fill="none"/><path d="M561.0,355.0 A11,11 0 0 1 557.7,362.7" stroke="#5B6B8C" stroke-width="2" fill="none"/><path d="M550.0,366.0 A11,11 0 0 1 542.3,362.7" stroke="#5B6B8C" stroke-width="2" fill="none"/><path d="M539.0,355.0 A11,11 0 0 1 542.3,347.3" stroke="#5B6B8C" stroke-width="2" fill="none"/>
<rect x="537.0" y="577.0" width="26.0" height="8" fill="#FDFDFE"/><path d="M537.0,580.0 A26.0,26.0 0 0 1 563.0,554.0" fill="none" stroke="#2D3748" stroke-width="1"/><line x1="537.0" y1="580.0" x2="537.0" y2="554.0" stroke="#2D3748" stroke-width="1.2"/>
<line x1="716.6666666666666" y1="80" x2="716.6666666666666" y2="580" stroke="#2D3748" stroke-width="3"/>
<text x="726.6666666666666" y="100" font-size="11.5" font-weight="700" fill="#374151">Rooftop Level 15</text>
<circle cx="883.3333333333333" cy="355.0" r="11" fill="none" stroke="#5B6B8C" stroke-width="2"/><path d="M883.3333333333333,344.0 A11,11 0 0 1 891.0333333333333,347.3" stroke="#5B6B8C" stroke-width="2" fill="none"/><path d="M894.3333333333333,355.0 A11,11 0 0 1 891.0333333333333,362.7" stroke="#5B6B8C" stroke-width="2" fill="none"/><path d="M883.3333333333333,366.0 A11,11 0 0 1 875.6333333333332,362.7" stroke="#5B6B8C" stroke-width="2" fill="none"/><path d="M872.3333333333333,355.0 A11,11 0 0 1 875.6333333333332,347.3" stroke="#5B6B8C" stroke-width="2" fill="none"/>
<rect x="870.3" y="577.0" width="26.0" height="8" fill="#FDFDFE"/><path d="M870.3,580.0 A26.0,26.0 0 0 1 896.3,554.0" fill="none" stroke="#2D3748" stroke-width="1"/><line x1="870.3" y1="580.0" x2="870.3" y2="554.0" stroke="#2D3748" stroke-width="1.2"/>
</svg>