<svg width="1300" height="850" viewBox="0 0 1300 850" xmlns="http://www.w3.org/2000/svg" font-family="Arial, sans-serif">
<rect x="0" y="0" width="1300" height="850" fill="#FFFFFF"/>
<text x="650.0" y="30" text-anchor="middle" font-size="17" font-weight="bold" fill="#1A3566">F1 — Conceptual Layout</text>
<rect x="60" y="55" width="1180" height="735" fill="none" stroke="#1A1A1A" stroke-width="5"/>
<rect x="63" y="732" width="1174" height="55" fill="#EEF1F5"/>
<text x="650.0" y="765.0" text-anchor="middle" font-size="10" fill="#8899AA">CORRIDOR</text>
<text x="70.0" y="77" font-size="12" font-weight="700" fill="#2D3748">Retail</text>
<rect x="187.5" y="393.5" width="40" height="24.0" fill="none" stroke="#4A5568" stroke-width="1.6"/><line x1="195.5" y1="393.5" x2="195.5" y2="417.5" stroke="#8899AA" stroke-width="1"/><line x1="203.5" y1="393.5" x2="203.5" y2="417.5" stroke="#8899AA" stroke-width="1"/><line x1="211.5" y1="393.5" x2="211.5" y2="417.5" stroke="#8899AA" stroke-width="1"/><line x1="219.5" y1="393.5" x2="219.5" y2="417.5" stroke="#8899AA" stroke-width="1"/>
<rect x="194.5" y="729" width="26" height="6" fill="#FFFFFF"/>
<path d="M194.5,732 A26,26 0 0 1 220.5,706" fill="none" stroke="#1A1A1A" stroke-width="1"/>
<line x1="194.5" y1="732" x2="194.5" y2="706" stroke="#1A1A1A" stroke-width="1.2"/>
<line x1="355.0" y1="55" x2="355.0" y2="732" stroke="#1A1A1A" stroke-width="3"/>
<text x="365.0" y="77" font-size="12" font-weight="700" fill="#2D3748">L2 Common Area</text>
<rect x="489.5" y="385.5" width="26" height="40" fill="none" stroke="#4A5568" stroke-width="1.6"/><line x1="493.5" y1="391.5" x2="511.5" y2="391.5" stroke="#8899AA" stroke-width="1"/><line x1="493.5" y1="399.5" x2="511.5" y2="399.5" stroke="#8899AA" stroke-width="1"/><line x1="493.5" y1="407.5" x2="511.5" y2="407.5" stroke="#8899AA" stroke-width="1"/><line x1="493.5" y1="415.5" x2="511.5" y2="415.5" stroke="#8899AA" stroke-width="1"/>
<rect x="489.5" y="729" width="26" height="6" fill="#FFFFFF"/>
<path d="M489.5,732 A26,26 0 0 1 515.5,706" fill="none" stroke="#1A1A1A" stroke-width="1"/>
<line x1="489.5" y1="732" x2="489.5" y2="706" stroke="#1A1A1A" stroke-width="1.2"/>
<line x1="650.0" y1="55" x2="650.0" y2="732" stroke="#1A1A1A" stroke-width="3"/>
<text x="660.0" y="77" font-size="12" font-weight="700" fill="#2D3748">L2 Ceiling Void</text>
<rect x="784.5" y="385.5" width="26" height="40" fill="none" stroke="#4A5568" stroke-width="1.6"/><line x1="788.5" y1="391.5" x2="806.5" y2="391.5" stroke="#8899AA" stroke-width="1"/><line x1="788.5" y1="399.5" x2="806.5" y2="399.5" stroke="#8899AA" stroke-width="1"/><line x1="788.5" y1="407.5" x2="806.5" y2="407.5" stroke="#8899AA" stroke-width="1"/><line x1="788.5" y1="415.5" x2="806.5" y2="415.5" stroke="#8899AA" stroke-width="1"/>
<rect x="784.5" y="729" width="26" height="6" fill="#FFFFFF"/>
<path d="M784.5,732 A26,26 0 0 1 810.5,706" fill="none" stroke="#1A1A1A" stroke-width="1"/>
<line x1="784.5" y1="732" x2="784.5" y2="706" stroke="#1A1A1A" stroke-width="1.2"/>
<line x1="945.0" y1="55" x2="945.0" y2="732" stroke="#1A1A1A" stroke-width="3"/>
<text x="955.0" y="77" font-size="12" font-weight="700" fill="#2D3748">L2 Retail Zone</text>
<g transform="translate(1092.5,405.5) rotate(0)"><rect x="-15" y="-9" width="30" height="16" fill="none" stroke="#4A5568" stroke-width="1.2"/><circle cx="0" cy="14" r="6" fill="none" stroke="#8899AA" stroke-width="1.2"/></g>
<rect x="1079.5" y="729" width="26" height="6" fill="#FFFFFF"/>
<path d="M1079.5,732 A26,26 0 0 1 1105.5,706" fill="none" stroke="#1A1A1A" stroke-width="1"/>
<line x1="1079.5" y1="732" x2="1079.5" y2="706" stroke="#1A1A1A" stroke-width="1.2"/>
</svg>