<svg width="1300" height="850" viewBox="0 0 1300 850" xmlns="http://www.w3.org/2000/svg" font-family="Arial, sans-serif">
<rect x="0" y="0" width="1300" height="850" fill="#FFFFFF"/>
<text x="650.0" y="30" text-anchor="middle" font-size="17" font-weight="bold" fill="#1A3566">F2 — Conceptual Layout</text>
<rect x="60" y="55" width="1180" height="735" fill="none" stroke="#1A1A1A" stroke-width="5"/>
<rect x="63" y="389.5" width="1174" height="66" fill="#EEF1F5"/>
<text x="650.0" y="426.5" text-anchor="middle" font-size="10" fill="#8899AA">CORRIDOR</text>
<text x="68.0" y="73" font-size="11" font-weight="700" fill="#2D3748">Retail</text>
<rect x="335.0" y="218.25" width="40" height="24.0" fill="none" stroke="#4A5568" stroke-width="1.6"/><line x1="343.0" y1="218.25" x2="343.0" y2="242.25" stroke="#8899AA" stroke-width="1"/><line x1="351.0" y1="218.25" x2="351.0" y2="242.25" stroke="#8899AA" stroke-width="1"/><line x1="359.0" y1="218.25" x2="359.0" y2="242.25" stroke="#8899AA" stroke-width="1"/><line x1="367.0" y1="218.25" x2="367.0" y2="242.25" stroke="#8899AA" stroke-width="1"/>
<rect x="344.0" y="386.5" width="22" height="6" fill="#FFFFFF"/>
<path d="M344.0,389.5 A22,22 0 0 1 366.0,367.5" fill="none" stroke="#1A1A1A" stroke-width="1"/>
<line x1="344.0" y1="389.5" x2="344.0" y2="367.5" stroke="#1A1A1A" stroke-width="1.2"/>
<line x1="650.0" y1="55" x2="650.0" y2="389.5" stroke="#1A1A1A" stroke-width="3"/>
<text x="658.0" y="73" font-size="11" font-weight="700" fill="#2D3748">L3 Common Area</text>
<rect x="932.0" y="210.25" width="26" height="40" fill="none" stroke="#4A5568" stroke-width="1.6"/><line x1="936.0" y1="216.25" x2="954.0" y2="216.25" stroke="#8899AA" stroke-width="1"/><line x1="936.0" y1="224.25" x2="954.0" y2="224.25" stroke="#8899AA" stroke-width="1"/><line x1="936.0" y1="232.25" x2="954.0" y2="232.25" stroke="#8899AA" stroke-width="1"/><line x1="936.0" y1="240.25" x2="954.0" y2="240.25" stroke="#8899AA" stroke-width="1"/>
<rect x="934.0" y="386.5" width="22" height="6" fill="#FFFFFF"/>
<path d="M934.0,389.5 A22,22 0 0 1 956.0,367.5" fill="none" stroke="#1A1A1A" stroke-width="1"/>
<line x1="934.0" y1="389.5" x2="934.0" y2="367.5" stroke="#1A1A1A" stroke-width="1.2"/>
<text x="68.0" y="473.5" font-size="11" font-weight="700" fill="#2D3748">L3 Ceiling Void</text>
<rect x="342.0" y="610.75" width="26" height="40" fill="none" stroke="#4A5568" stroke-width="1.6"/><line x1="346.0" y1="616.75" x2="364.0" y2="616.75" stroke="#8899AA" stroke-width="1"/><line x1="346.0" y1="624.75" x2="364.0" y2="624.75" stroke="#8899AA" stroke-width="1"/><line x1="346.0" y1="632.75" x2="364.0" y2="632.75" stroke="#8899AA" stroke-width="1"/><line x1="346.0" y1="640.75" x2="364.0" y2="640.75" stroke="#8899AA" stroke-width="1"/>
<rect x="344.0" y="452.5" width="22" height="6" fill="#FFFFFF"/>
<path d="M344.0,455.5 A22,22 0 0 0 366.0,477.5" fill="none" stroke="#1A1A1A" stroke-width="1"/>
<line x1="344.0" y1="455.5" x2="344.0" y2="477.5" stroke="#1A1A1A" stroke-width="1.2"/>
<line x1="650.0" y1="455.5" x2="650.0" y2="790.0" stroke="#1A1A1A" stroke-width="3"/>
<text x="658.0" y="473.5" font-size="11" font-weight="700" fill="#2D3748">L3 Retail Zone</text>
<g transform="translate(945.0,630.75) rotate(90)"><rect x="-15" y="-9" width="30" height="16" fill="none" stroke="#4A5568" stroke-width="1.2"/><circle cx="0" cy="14" r="6" fill="none" stroke="#8899AA" stroke-width="1.2"/></g>
<rect x="934.0" y="452.5" width="22" height="6" fill="#FFFFFF"/>
<path d="M934.0,455.5 A22,22 0 0 0 956.0,477.5" fill="none" stroke="#1A1A1A" stroke-width="1"/>
<line x1="934.0" y1="455.5" x2="934.0" y2="477.5" stroke="#1A1A1A" stroke-width="1.2"/>
</svg>