<svg width="1300" height="850" viewBox="0 0 1300 850" xmlns="http://www.w3.org/2000/svg" font-family="Arial, sans-serif">
<rect x="0" y="0" width="1300" height="850" fill="#FFFFFF"/>
<text x="650.0" y="30" text-anchor="middle" font-size="17" font-weight="bold" fill="#1A3566">F3 — Conceptual Layout</text>
<rect x="60" y="55" width="1180" height="735" fill="none" stroke="#1A1A1A" stroke-width="5"/>
<rect x="63" y="730" width="1174" height="57" fill="#EEF1F5"/>
<text x="650.0" y="764.0" text-anchor="middle" font-size="10" fill="#8899AA">CORRIDOR</text>
<text x="70.0" y="77" font-size="12" font-weight="700" fill="#2D3748">Office</text>
<rect x="187.5" y="392.5" width="40" height="24.0" fill="none" stroke="#4A5568" stroke-width="1.6"/><line x1="195.5" y1="392.5" x2="195.5" y2="416.5" stroke="#8899AA" stroke-width="1"/><line x1="203.5" y1="392.5" x2="203.5" y2="416.5" stroke="#8899AA" stroke-width="1"/><line x1="211.5" y1="392.5" x2="211.5" y2="416.5" stroke="#8899AA" stroke-width="1"/><line x1="219.5" y1="392.5" x2="219.5" y2="416.5" stroke="#8899AA" stroke-width="1"/>
<rect x="194.5" y="727" width="26" height="6" fill="#FFFFFF"/>
<path d="M194.5,730 A26,26 0 0 1 220.5,704" fill="none" stroke="#1A1A1A" stroke-width="1"/>
<line x1="194.5" y1="730" x2="194.5" y2="704" stroke="#1A1A1A" stroke-width="1.2"/>
<line x1="355.0" y1="55" x2="355.0" y2="730" stroke="#1A1A1A" stroke-width="3"/>
<text x="365.0" y="77" font-size="12" font-weight="700" fill="#2D3748">L4 Common Area</text>
<rect x="489.5" y="384.5" width="26" height="40" fill="none" stroke="#4A5568" stroke-width="1.6"/><line x1="493.5" y1="390.5" x2="511.5" y2="390.5" stroke="#8899AA" stroke-width="1"/><line x1="493.5" y1="398.5" x2="511.5" y2="398.5" stroke="#8899AA" stroke-width="1"/><line x1="493.5" y1="406.5" x2="511.5" y2="406.5" stroke="#8899AA" stroke-width="1"/><line x1="493.5" y1="414.5" x2="511.5" y2="414.5" stroke="#8899AA" stroke-width="1"/>
<rect x="489.5" y="727" width="26" height="6" fill="#FFFFFF"/>
<path d="M489.5,730 A26,26 0 0 1 515.5,704" fill="none" stroke="#1A1A1A" stroke-width="1"/>
<line x1="489.5" y1="730" x2="489.5" y2="704" stroke="#1A1A1A" stroke-width="1.2"/>
<line x1="650.0" y1="55" x2="650.0" y2="730" stroke="#1A1A1A" stroke-width="3"/>
<text x="660.0" y="77" font-size="12" font-weight="700" fill="#2D3748">L4 Ceiling Void</text>
<rect x="784.5" y="384.5" width="26" height="40" fill="none" stroke="#4A5568" stroke-width="1.6"/><line x1="788.5" y1="390.5" x2="806.5" y2="390.5" stroke="#8899AA" stroke-width="1"/><line x1="788.5" y1="398.5" x2="806.5" y2="398.5" stroke="#8899AA" stroke-width="1"/><line x1="788.5" y1="406.5" x2="806.5" y2="406.5" stroke="#8899AA" stroke-width="1"/><line x1="788.5" y1="414.5" x2="806.5" y2="414.5" stroke="#8899AA" stroke-width="1"/>
<rect x="784.5" y="727" width="26" height="6" fill="#FFFFFF"/>
<path d="M784.5,730 A26,26 0 0 1 810.5,704" fill="none" stroke="#1A1A1A" stroke-width="1"/>
<line x1="784.5" y1="730" x2="784.5" y2="704" stroke="#1A1A1A" stroke-width="1.2"/>
<line x1="945.0" y1="55" x2="945.0" y2="730" stroke="#1A1A1A" stroke-width="3"/>
<text x="955.0" y="77" font-size="12" font-weight="700" fill="#2D3748">L4 Office Entry</text>
<rect x="1079.5" y="384.5" width="26" height="40" fill="none" stroke="#4A5568" stroke-width="1.6"/><line x1="1083.5" y1="390.5" x2="1101.5" y2="390.5" stroke="#8899AA" stroke-width="1"/><line x1="1083.5" y1="398.5" x2="1101.5" y2="398.5" stroke="#8899AA" stroke-width="1"/><line x1="1083.5" y1="406.5" x2="1101.5" y2="406.5" stroke="#8899AA" stroke-width="1"/><line x1="1083.5" y1="414.5" x2="1101.5" y2="414.5" stroke="#8899AA" stroke-width="1"/>
<rect x="1079.5" y="727" width="26" height="6" fill="#FFFFFF"/>
<path d="M1079.5,730 A26,26 0 0 1 1105.5,704" fill="none" stroke="#1A1A1A" stroke-width="1"/>
<line x1="1079.5" y1="730" x2="1079.5" y2="704" stroke="#1A1A1A" stroke-width="1.2"/>
</svg>