<svg width="1100" height="700" viewBox="0 0 1100 700" xmlns="http://www.w3.org/2000/svg" font-family="Arial, sans-serif">
<rect x="0" y="0" width="1100" height="700" fill="#F0F2F6"/>
<text x="550.0" y="26" text-anchor="middle" font-size="17" font-weight="bold" fill="#1A3566">F7 — Conceptual Layout</text>
<rect x="50" y="80" width="1000" height="570" fill="#FDFDFE" stroke="#2D3748" stroke-width="8"/>
<rect x="54.0" y="580" width="992" height="66.0" fill="#EEF1F5"/>
<text x="550.0" y="619.0" text-anchor="middle" font-size="10" fill="#5B6B8C" opacity="0.7">CORRIDOR</text>
<text x="60.0" y="100" font-size="11.5" font-weight="700" fill="#374151">Level 8 Mechanical Room</text>
<circle cx="550.0" cy="355.0" r="11" fill="none" stroke="#5B6B8C" stroke-width="2"/><path d="M550.0,344.0 A11,11 0 0 1 557.7,347.3" stroke="#5B6B8C" stroke-width="2" fill="none"/><path d="M561.0,355.0 A11,11 0 0 1 557.7,362.7" stroke="#5B6B8C" stroke-width="2" fill="none"/><path d="M550.0,366.0 A11,11 0 0 1 542.3,362.7" stroke="#5B6B8C" stroke-width="2" fill="none"/><path d="M539.0,355.0 A11,11 0 0 1 542.3,347.3" stroke="#5B6B8C" stroke-width="2" fill="none"/>
<rect x="537.0" y="577.0" width="26.0" height="8" fill="#FDFDFE"/><path d="M537.0,580.0 A26.0,26.0 0 0 1 563.0,554.0" fill="none" stroke="#2D3748" stroke-width="1"/><line x1="537.0" y1="580.0" x2="537.0" y2="554.0" stroke="#2D3748" stroke-width="1.2"/>
</svg>