<svg width="1300" height="850" viewBox="0 0 1300 850" xmlns="http://www.w3.org/2000/svg" font-family="Arial, sans-serif">
<rect x="0" y="0" width="1300" height="850" fill="#FFFFFF"/>
<text x="650.0" y="30" text-anchor="middle" font-size="17" font-weight="bold" fill="#1A3566">F7 — Conceptual Layout</text>
<rect x="60" y="55" width="1180" height="735" fill="none" stroke="#1A1A1A" stroke-width="5"/>
<rect x="63" y="723" width="1174" height="64" fill="#EEF1F5"/>
<text x="650.0" y="760.5" text-anchor="middle" font-size="10" fill="#8899AA">CORRIDOR</text>
<text x="70.0" y="77" font-size="12" font-weight="700" fill="#2D3748">Level 8 Mechanical Room</text>
<rect x="339.0" y="389.0" width="40" height="24.0" fill="none" stroke="#4A5568" stroke-width="1.6"/><line x1="347.0" y1="389.0" x2="347.0" y2="413.0" stroke="#8899AA" stroke-width="1"/><line x1="355.0" y1="389.0" x2="355.0" y2="413.0" stroke="#8899AA" stroke-width="1"/><line x1="363.0" y1="389.0" x2="363.0" y2="413.0" stroke="#8899AA" stroke-width="1"/><line x1="371.0" y1="389.0" x2="371.0" y2="413.0" stroke="#8899AA" stroke-width="1"/>
<rect x="630.0" y="389.0" width="40" height="24.0" fill="none" stroke="#4A5568" stroke-width="1.6"/><line x1="638.0" y1="389.0" x2="638.0" y2="413.0" stroke="#8899AA" stroke-width="1"/><line x1="646.0" y1="389.0" x2="646.0" y2="413.0" stroke="#8899AA" stroke-width="1"/><line x1="654.0" y1="389.0" x2="654.0" y2="413.0" stroke="#8899AA" stroke-width="1"/><line x1="662.0" y1="389.0" x2="662.0" y2="413.0" stroke="#8899AA" stroke-width="1"/>
<rect x="921.0" y="389.0" width="40" height="24.0" fill="none" stroke="#4A5568" stroke-width="1.6"/><line x1="929.0" y1="389.0" x2="929.0" y2="413.0" stroke="#8899AA" stroke-width="1"/><line x1="937.0" y1="389.0" x2="937.0" y2="413.0" stroke="#8899AA" stroke-width="1"/><line x1="945.0" y1="389.0" x2="945.0" y2="413.0" stroke="#8899AA" stroke-width="1"/><line x1="953.0" y1="389.0" x2="953.0" y2="413.0" stroke="#8899AA" stroke-width="1"/>
<rect x="637.0" y="720" width="26" height="6" fill="#FFFFFF"/>
<path d="M637.0,723 A26,26 0 0 1 663.0,697" fill="none" stroke="#1A1A1A" stroke-width="1"/>
<line x1="637.0" y1="723" x2="637.0" y2="697" stroke="#1A1A1A" stroke-width="1.2"/>
</svg>