<svg width="1300" height="850" viewBox="0 0 1300 850" xmlns="http://www.w3.org/2000/svg" font-family="Arial, sans-serif">
<rect x="0" y="0" width="1300" height="850" fill="#FFFFFF"/>
<text x="650.0" y="30" text-anchor="middle" font-size="17" font-weight="bold" fill="#1A3566">F8 — Conceptual Layout</text>
<rect x="60" y="55" width="1180" height="735" fill="none" stroke="#1A1A1A" stroke-width="5"/>
<rect x="63" y="386.5" width="1174" height="72" fill="#EEF1F5"/>
<text x="650.0" y="426.5" text-anchor="middle" font-size="10" fill="#8899AA">CORRIDOR</text>
<text x="68.0" y="73" font-size="11" font-weight="700" fill="#2D3748">Office</text>
<rect x="335.0" y="216.75" width="40" height="24.0" fill="none" stroke="#4A5568" stroke-width="1.6"/><line x1="343.0" y1="216.75" x2="343.0" y2="240.75" stroke="#8899AA" stroke-width="1"/><line x1="351.0" y1="216.75" x2="351.0" y2="240.75" stroke="#8899AA" stroke-width="1"/><line x1="359.0" y1="216.75" x2="359.0" y2="240.75" stroke="#8899AA" stroke-width="1"/><line x1="367.0" y1="216.75" x2="367.0" y2="240.75" stroke="#8899AA" stroke-width="1"/>
<rect x="344.0" y="383.5" width="22" height="6" fill="#FFFFFF"/>
<path d="M344.0,386.5 A22,22 0 0 1 366.0,364.5" fill="none" stroke="#1A1A1A" stroke-width="1"/>
<line x1="344.0" y1="386.5" x2="344.0" y2="364.5" stroke="#1A1A1A" stroke-width="1.2"/>
<line x1="650.0" y1="55" x2="650.0" y2="386.5" stroke="#1A1A1A" stroke-width="3"/>
<text x="658.0" y="73" font-size="11" font-weight="700" fill="#2D3748">L9 Common Area</text>
<rect x="932.0" y="208.75" width="26" height="40" fill="none" stroke="#4A5568" stroke-width="1.6"/><line x1="936.0" y1="214.75" x2="954.0" y2="214.75" stroke="#8899AA" stroke-width="1"/><line x1="936.0" y1="222.75" x2="954.0" y2="222.75" stroke="#8899AA" stroke-width="1"/><line x1="936.0" y1="230.75" x2="954.0" y2="230.75" stroke="#8899AA" stroke-width="1"/><line x1="936.0" y1="238.75" x2="954.0" y2="238.75" stroke="#8899AA" stroke-width="1"/>
<rect x="934.0" y="383.5" width="22" height="6" fill="#FFFFFF"/>
<path d="M934.0,386.5 A22,22 0 0 1 956.0,364.5" fill="none" stroke="#1A1A1A" stroke-width="1"/>
<line x1="934.0" y1="386.5" x2="934.0" y2="364.5" stroke="#1A1A1A" stroke-width="1.2"/>
<text x="68.0" y="476.5" font-size="11" font-weight="700" fill="#2D3748">L9 Ceiling Void</text>
<rect x="342.0" y="612.25" width="26" height="40" fill="none" stroke="#4A5568" stroke-width="1.6"/><line x1="346.0" y1="618.25" x2="364.0" y2="618.25" stroke="#8899AA" stroke-width="1"/><line x1="346.0" y1="626.25" x2="364.0" y2="626.25" stroke="#8899AA" stroke-width="1"/><line x1="346.0" y1="634.25" x2="364.0" y2="634.25" stroke="#8899AA" stroke-width="1"/><line x1="346.0" y1="642.25" x2="364.0" y2="642.25" stroke="#8899AA" stroke-width="1"/>
<rect x="344.0" y="455.5" width="22" height="6" fill="#FFFFFF"/>
<path d="M344.0,458.5 A22,22 0 0 0 366.0,480.5" fill="none" stroke="#1A1A1A" stroke-width="1"/>
<line x1="344.0" y1="458.5" x2="344.0" y2="480.5" stroke="#1A1A1A" stroke-width="1.2"/>
<line x1="650.0" y1="458.5" x2="650.0" y2="790.0" stroke="#1A1A1A" stroke-width="3"/>
<text x="658.0" y="476.5" font-size="11" font-weight="700" fill="#2D3748">L9 Office Entry</text>
<rect x="932.0" y="612.25" width="26" height="40" fill="none" stroke="#4A5568" stroke-width="1.6"/><line x1="936.0" y1="618.25" x2="954.0" y2="618.25" stroke="#8899AA" stroke-width="1"/><line x1="936.0" y1="626.25" x2="954.0" y2="626.25" stroke="#8899AA" stroke-width="1"/><line x1="936.0" y1="634.25" x2="954.0" y2="634.25" stroke="#8899AA" stroke-width="1"/><line x1="936.0" y1="642.25" x2="954.0" y2="642.25" stroke="#8899AA" stroke-width="1"/>
<rect x="934.0" y="455.5" width="22" height="6" fill="#FFFFFF"/>
<path d="M934.0,458.5 A22,22 0 0 0 956.0,480.5" fill="none" stroke="#1A1A1A" stroke-width="1"/>
<line x1="934.0" y1="458.5" x2="934.0" y2="480.5" stroke="#1A1A1A" stroke-width="1.2"/>
</svg>